# xmcd
#
# Track frame offsets:
#	150
#	12182
#	21306
#	35200
#	45149
#	55107
#	65881
#	79300
#	88452
#	103199
#	114253
#	127216
#	135798
#	150826
#
# Disc length: 2128 seconds
#
# Revision: 1
# Processed by: cddbd v1.5.1PL2 Copyright (c) Steve Scherf et al.
# Submitted via: audiograbber 1.83.01
#
DISCID=b6084e0e
DTITLE=50 Guitars Of Tommy - Latin Love
DYEAR=1900
DGENRE=
TTITLE0=Brazil
TTITLE1=The Girl From Ipanema
TTITLE2=Blue Tango
TTITLE3=Tequila
TTITLE4=The Breeze And I
TTITLE5=Love Theme Frim La Strada
TTITLE6=Carioca
TTITLE7=Samba de Orfeu
TTITLE8=Maria Elena
TTITLE9=Volare
TTITLE10=Temptation
TTITLE11=Ciao Ciao Bambina
TTITLE12=Guantanamera
TTITLE13=Tijuana Jail
EXTD=
EXTT0=
EXTT1=
EXTT2=
EXTT3=
EXTT4=
EXTT5=
EXTT6=
EXTT7=
EXTT8=
EXTT9=
EXTT10=
EXTT11=
EXTT12=
EXTT13=
PLAYORDER=
